<svg width="31" height="32" viewBox="0 0 31 32" fill="none" xmlns="http://www.w3.org/2000/svg">
<path d="M22.5195 11.334H23.8019C25.1625 11.334 26.4673 11.8959 27.4293 12.8961C28.3913 13.8963 28.9318 15.2529 28.9318 16.6674C28.9318 18.0818 28.3913 19.4384 27.4293 20.4386C26.4673 21.4388 25.1625 22.0007 23.8019 22.0007H22.5195" stroke="white" stroke-width="2" stroke-linecap="round" stroke-linejoin="round"/>
<path d="M2 11.334H22.5191V23.334C22.5191 24.7485 21.9786 26.1051 21.0166 27.1053C20.0546 28.1055 18.7498 28.6674 17.3893 28.6674H7.12978C5.76928 28.6674 4.4645 28.1055 3.50248 27.1053C2.54046 26.1051 2 24.7485 2 23.334V11.334Z" fill="white" stroke="white" stroke-width="2" stroke-linecap="round" stroke-linejoin="round"/>
<path d="M7.13086 2V6" stroke="white" stroke-width="2" stroke-linecap="round" stroke-linejoin="round"/>
<path d="M12.2598 2V6" stroke="#7900C2" stroke-width="2" stroke-linecap="round" stroke-linejoin="round"/>
<path d="M17.3887 2V6" stroke="white" stroke-width="2" stroke-linecap="round" stroke-linejoin="round"/>
</svg>
